<svg xmlns="http://www.w3.org/2000/svg" version="1.1" xmlns:xlink="http://www.w3.org/1999/xlink" width="512" height="512" x="0" y="0" viewBox="0 0 512 512" style="enable-background:new 0 0 512 512" xml:space="preserve" class=""><g><path fill-rule="evenodd" d="M68.272 305.235c25.298.652 25.292 37.717-.001 38.365-25.298-.652-25.293-37.716.001-38.365zm129.161 0c25.299.651 25.294 37.717-.001 38.365-25.296-.652-25.291-37.717.001-38.365zm53.712 0c25.298.652 25.292 37.717-.001 38.365-25.298-.652-25.293-37.717.001-38.365zm140.671 0c25.299.652 25.294 37.716-.001 38.365-25.296-.652-25.291-37.717.001-38.365zm53.711 0c25.299.651 25.294 37.717-.001 38.365-25.296-.652-25.291-37.717.001-38.365zM43.072 324.418c.859-33.241 49.55-33.219 50.4 0h78.763c.394-29.693 42.416-34.433 49.676-6.017h4.759c7.27-28.434 49.288-23.656 49.676 6.017h9.328v-26.855H15.84v26.855zm323.545 0c.86-33.242 49.55-33.218 50.4 0h3.311c.86-33.242 49.55-33.218 50.4 0h10.607v-26.855H353.452v26.855zM28.991 220.275h64.691a5.015 5.015 0 0 1 4.692 6.783L87.03 257.13a5.011 5.011 0 0 1-4.691 3.244c-.891-.111-64.714.141-65.593-.051-1.324 10.237-1.693 20.653-1.247 31.222h109.04v-88.617H62.823a41.664 41.664 0 0 0-33.832 17.347zm467.69 71.271V191.419H148.838v100.126h347.843zm-322.804-79.477v58.826a5.015 5.015 0 0 0 5.014 5.014 5.016 5.016 0 0 0 5.014-5.014v-58.826c-.11-6.573-9.913-6.604-10.028 0zm63.942 0v58.826a5.015 5.015 0 0 0 5.014 5.014 5.016 5.016 0 0 0 5.014-5.014v-58.826c-.11-6.573-9.913-6.604-10.028 0zm-31.972 0v58.826a5.016 5.016 0 0 0 5.014 5.014 5.015 5.015 0 0 0 5.014-5.014v-58.826c-.109-6.572-9.912-6.605-10.028 0zm159.854 0v58.826a5.016 5.016 0 0 0 5.014 5.014 5.015 5.015 0 0 0 5.014-5.014v-58.826c-.108-6.572-9.911-6.605-10.028 0zm-63.942 0v58.826a5.016 5.016 0 0 0 5.014 5.014 5.015 5.015 0 0 0 5.014-5.014v-58.826c-.108-6.572-9.911-6.605-10.028 0zm127.884 0v58.826c0 2.768 2.246 5.014 5.014 5.014s5.014-2.246 5.014-5.014v-58.826c-.109-6.573-9.912-6.605-10.028 0zm-31.97 0v58.826a5.015 5.015 0 0 0 5.014 5.014 5.016 5.016 0 0 0 5.014-5.014v-58.826c-.11-6.573-9.913-6.604-10.028 0zm63.941 0v58.826a5.016 5.016 0 0 0 5.014 5.014 5.015 5.015 0 0 0 5.014-5.014v-58.826c-.109-6.572-9.912-6.605-10.028 0zm-127.883 0v58.826a5.015 5.015 0 0 0 5.014 5.014 5.016 5.016 0 0 0 5.014-5.014v-58.826c-.11-6.573-9.912-6.604-10.028 0zm-63.942 0v58.826c0 2.768 2.246 5.014 5.014 5.014s5.014-2.246 5.014-5.014v-58.826c-.109-6.573-9.912-6.605-10.028 0zM23.851 229.866c-2.376 6.687-4.138 13.57-5.498 20.48h37.23v-20.043c-.85-.22-31.9.512-31.732-.437zm41.761.437v20.043h13.259l7.56-20.043zm58.928-33.391H73.578L124.54 168.4z" clip-rule="evenodd" fill="#ffffff" opacity="1" data-original="#000000" class=""></path></g></svg>