<svg xmlns="http://www.w3.org/2000/svg" version="1.1" xmlns:xlink="http://www.w3.org/1999/xlink" width="512" height="512" x="0" y="0" viewBox="0 0 500 500" style="enable-background:new 0 0 512 512" xml:space="preserve" class=""><g><path fill-rule="evenodd" d="M221.58 272.98c-37.69 0-71.81-15.28-96.51-39.98s-39.98-58.82-39.98-96.51 15.28-71.81 39.98-96.51S183.89 0 221.58 0s71.81 15.28 96.51 39.98 39.98 58.82 39.98 96.51S342.8 208.3 318.1 233c-24.7 24.71-58.83 39.98-96.52 39.98zm98.28 151.25c0-3.87 3.13-7 7-7s7 3.13 7 7v24.62h94.83v-24.62c0-3.87 3.13-7 7-7s7 3.13 7 7v24.62h28.5c2.19 0 4.18-.9 5.63-2.35s2.35-3.45 2.35-5.63c0-18.83-7.71-35.96-20.13-48.38s-29.54-20.13-48.38-20.13h-58.79c-18.83 0-35.96 7.71-48.38 20.13s-20.13 29.54-20.13 48.38c0 2.19.9 4.18 2.35 5.63s3.45 2.35 5.63 2.35h28.5v-24.62zm61.42-203.16c-16.32 0-31.09 6.61-41.78 17.31-10.69 10.69-17.31 25.47-17.31 41.78 0 16.32 6.61 31.09 17.31 41.78 10.69 10.69 25.47 17.31 41.78 17.31 16.32 0 31.09-6.61 41.78-17.31 10.69-10.69 17.31-25.47 17.31-41.78 0-16.32-6.61-31.09-17.31-41.78-10.7-10.7-25.47-17.31-41.78-17.31zm31.88 27.2c-8.16-8.16-19.43-13.21-31.88-13.21s-23.72 5.05-31.88 13.21-13.21 19.43-13.21 31.88 5.05 23.72 13.21 31.88 19.43 13.21 31.88 13.21 23.72-5.05 31.88-13.21 13.21-19.43 13.21-31.88c-.01-12.44-5.05-23.72-13.21-31.88zm-61.28 110.09h58.79c22.7 0 43.32 9.28 58.27 24.23s24.23 35.58 24.23 58.27c0 6.05-2.47 11.55-6.45 15.53s-9.48 6.45-15.53 6.45H291.36c-6.05 0-11.55-2.47-15.53-6.45s-6.45-9.48-6.45-15.53c0-22.7 9.28-43.32 24.23-58.27s35.57-24.23 58.27-24.23zM57.31 461.38c0-3.87 3.13-7 7-7s7 3.13 7 7V486h94.83v-24.62c0-3.87 3.13-7 7-7s7 3.13 7 7V486h28.5c2.19 0 4.18-.9 5.63-2.35s2.35-3.45 2.35-5.63c0-18.83-7.71-35.96-20.13-48.38s-29.54-20.13-48.38-20.13H89.33c-18.83 0-35.96 7.71-48.38 20.13s-20.13 29.54-20.13 48.38c0 2.19.9 4.18 2.35 5.63S26.62 486 28.8 486h28.5v-24.62zm61.42-203.17c-16.32 0-31.09 6.61-41.78 17.31-10.69 10.69-17.31 25.47-17.31 41.78 0 16.32 6.61 31.09 17.31 41.78 10.69 10.69 25.47 17.31 41.78 17.31 16.32 0 31.09-6.61 41.78-17.31 10.69-10.69 17.31-25.47 17.31-41.78 0-16.32-6.61-31.09-17.31-41.78s-25.47-17.31-41.78-17.31zm31.88 27.21c-8.16-8.16-19.43-13.21-31.88-13.21s-23.72 5.05-31.88 13.21-13.21 19.43-13.21 31.88 5.05 23.72 13.21 31.88 19.43 13.21 31.88 13.21 23.72-5.05 31.88-13.21 13.21-19.43 13.21-31.88c-.01-12.45-5.05-23.72-13.21-31.88zM89.33 395.51h58.79c22.7 0 43.32 9.28 58.27 24.23s24.23 35.58 24.23 58.27c0 6.05-2.47 11.55-6.45 15.53s-9.48 6.45-15.53 6.45H28.81c-6.05 0-11.55-2.47-15.53-6.45s-6.45-9.48-6.45-15.53c0-22.7 9.28-43.32 24.23-58.27 14.94-14.95 35.57-24.23 58.27-24.23zm139.25-194.88c7.11-1.4 13.46-4.91 18.39-9.84 6.5-6.5 10.52-15.48 10.52-25.39 0-27.55-17.15-31.63-34.3-35.72-11.76-2.8-23.52-5.6-23.52-22.1 0-6.05 2.45-11.53 6.42-15.49 3.96-3.96 9.44-6.42 15.49-6.42s11.53 2.45 15.49 6.42a21.85 21.85 0 0 1 6.42 15.49c0 3.87 3.13 7 7 7s7-3.13 7-7c0-9.92-4.02-18.89-10.52-25.39a35.864 35.864 0 0 0-18.39-9.84V59.43c0-3.87-3.13-7-7-7s-7 3.13-7 7v12.92c-7.11 1.4-13.46 4.91-18.39 9.84-6.5 6.5-10.52 15.48-10.52 25.39 0 27.55 17.15 31.63 34.3 35.72 11.76 2.8 23.52 5.6 23.52 22.1 0 6.05-2.45 11.53-6.42 15.49-3.96 3.96-9.44 6.42-15.49 6.42s-11.53-2.45-15.49-6.42a21.85 21.85 0 0 1-6.42-15.49c0-3.87-3.13-7-7-7s-7 3.13-7 7c0 9.92 4.02 18.89 10.52 25.39a35.864 35.864 0 0 0 18.39 9.84v12.92c0 3.87 3.13 7 7 7s7-3.13 7-7zm-7 46.69c30.6 0 58.31-12.41 78.36-32.46C320 194.8 332.4 167.1 332.4 136.5S320 78.19 299.94 58.14c-20.06-20.06-47.76-32.46-78.36-32.46s-58.31 12.41-78.36 32.46-32.46 47.76-32.46 78.36 12.4 58.31 32.46 78.36c20.05 20.05 47.76 32.46 78.36 32.46zm-68.46-42.36c17.52 17.52 41.73 28.36 68.47 28.36s50.94-10.84 68.47-28.36c17.52-17.52 28.36-41.73 28.36-68.47s-10.84-50.95-28.36-68.47-41.73-28.36-68.47-28.36-50.95 10.84-68.47 28.36-28.36 41.73-28.36 68.47 10.83 50.95 28.36 68.47zm-18.15 18.15c22.17 22.17 52.79 35.88 86.62 35.88s64.45-13.71 86.61-35.88c22.17-22.17 35.88-52.79 35.88-86.61s-13.71-64.45-35.88-86.62S255.41 14 221.58 14s-64.45 13.71-86.62 35.88-35.88 52.79-35.88 86.62 13.72 64.44 35.89 86.61z" clip-rule="evenodd" fill="#ffffff" opacity="1" data-original="#000000" class=""></path></g></svg>