<svg xmlns="http://www.w3.org/2000/svg" version="1.1" xmlns:xlink="http://www.w3.org/1999/xlink" width="512" height="512" x="0" y="0" viewBox="0 0 68 68" style="enable-background:new 0 0 512 512" xml:space="preserve"><g><path d="M8.034 51.978a1.248 1.248 0 0 1-1.04-.55c-8.163-12.613-6.36-29.484 4.282-40.126C21.623.956 37.512-1.115 50.073 6.19l1.536-2.253a1.296 1.296 0 0 1 1.188-.575c.48.034.893.314 1.104.748l4.378 9.099c.209.427.174.92-.093 1.314-.27.4-.704.613-1.201.581h-.001l-10.075-.745a1.31 1.31 0 0 1-1.094-.741 1.316 1.316 0 0 1 .096-1.326l1.358-1.994c-10.57-5.947-23.857-4.129-32.491 4.505-8.98 8.98-10.513 23.23-3.644 33.885.348.563.2 1.293-.332 1.67l-2.074 1.405a1.225 1.225 0 0 1-.694.215zM34.015 2.854a31.122 31.122 0 0 0-22.032 9.155C1.673 22.32-.075 38.665 7.828 50.876c.032.046.09.084.157.097.037.01.11.013.18-.037l2.067-1.398a.237.237 0 0 0 .056-.317C3.171 38.182 4.76 23.407 14.071 14.096c9.084-9.085 23.134-10.89 34.169-4.392a.5.5 0 0 1 .159.712l-1.661 2.436a.325.325 0 0 0-.024.33c.025.049.099.167.269.179l10.074.745c.193.023.268-.096.3-.144a.314.314 0 0 0 .022-.318L53 4.545a.326.326 0 0 0-.275-.186c-.048.003-.195.003-.29.14l-1.8 2.642a.502.502 0 0 1-.672.147 30.888 30.888 0 0 0-15.948-4.434zM33.968 66.146a31.927 31.927 0 0 1-16.026-4.302l-1.537 2.253a1.31 1.31 0 0 1-1.187.575 1.32 1.32 0 0 1-1.104-.748L9.72 54.827a1.33 1.33 0 0 1 1.295-1.897l10.074.745a1.33 1.33 0 0 1 1.108.752c.208.43.173.922-.094 1.317l-1.358 1.992c10.553 5.93 23.828 4.112 32.46-4.505 8.983-8.982 10.528-23.232 3.674-33.885-.176-.264-.242-.604-.175-.923s.256-.589.53-.762l2.035-1.389c.283-.193.64-.27.976-.191.327.07.601.264.773.546 8.152 12.597 6.342 29.468-4.312 40.105-6.069 6.07-14.144 9.414-22.738 9.414zm-16.176-5.47c.088 0 .177.023.258.07a30.916 30.916 0 0 0 15.918 4.4c8.326 0 16.15-3.24 22.031-9.121 10.323-10.306 12.078-26.651 4.172-38.866a.203.203 0 0 0-.136-.1.264.264 0 0 0-.202.04l-2.048 1.397a.206.206 0 0 0-.102.134.224.224 0 0 0 .033.168c7.11 11.052 5.509 25.828-3.804 35.14-9.082 9.066-23.12 10.873-34.138 4.393a.5.5 0 0 1-.16-.712l1.662-2.437a.316.316 0 0 0 .021-.318.335.335 0 0 0-.282-.19l-10.074-.746a.287.287 0 0 0-.288.136.334.334 0 0 0-.029.336l4.39 9.088a.326.326 0 0 0 .275.187.313.313 0 0 0 .289-.14l1.801-2.642a.5.5 0 0 1 .413-.218z" fill="#ffffff" opacity="1" data-original="#000000"></path><path d="m44.216 54.99-.15-.001c-.917-.02-2.114-.087-3.225-.412-3.044-.907-5.977-2.538-8.723-4.85-2.81-2.368-5.38-5.186-7.857-8.615-2.476-3.43-4.344-6.756-5.707-10.167-1.332-3.331-1.959-6.63-1.863-9.804.04-1.156.355-2.314.624-3.194.37-1.225 1.114-2.226 2.151-2.893.863-.555 1.547-.934 2.214-1.23a.5.5 0 0 1 .644.222l7.13 13.365a.5.5 0 0 1-.174.658c-.406.256-.826.5-1.263.753-.173.1-.348.201-.525.305 1.67 2.768 7.058 10.23 9.16 12.686l.462-.407a37.69 37.69 0 0 1 1.107-.958.499.499 0 0 1 .68.042l10.443 10.97a.5.5 0 0 1 .009.68c-.491.544-1.066 1.072-1.864 1.716-.92.743-2.05 1.135-3.273 1.135zM21.664 14.937c-.494.244-1.021.55-1.657.96-.845.544-1.43 1.332-1.735 2.342-.268.874-.545 1.905-.581 2.935-.092 3.035.51 6.198 1.79 9.4 1.335 3.335 3.163 6.59 5.59 9.953 2.43 3.362 4.945 6.122 7.691 8.435 2.64 2.224 5.453 3.79 8.362 4.657.996.292 2.109.351 2.966.37 1.055.02 1.988-.279 2.77-.91a16.784 16.784 0 0 0 1.432-1.272L38.5 41.52c-.239.206-.478.418-.723.635-.273.242-.552.49-.846.741a.499.499 0 0 1-.693-.042c-1.931-2.102-8.477-11.166-9.865-13.66a.498.498 0 0 1 .18-.67c.328-.2.65-.386.963-.566.285-.165.563-.327.835-.49z" fill="#ffffff" opacity="1" data-original="#000000"></path><path d="M29.013 28.146a.5.5 0 0 1-.441-.265L21.44 14.517a.5.5 0 0 1 .236-.691c.892-.402 1.74-.65 2.592-.758 1.639-.211 2.962.437 3.71 1.832 1.289 2.395 2.54 4.811 3.79 7.228 1.04 2.023.39 3.98-1.83 5.511-.22.152-.437.292-.663.433a.504.504 0 0 1-.263.074zm-6.432-13.615L29.2 26.932l.171-.116c1.804-1.245 2.312-2.668 1.51-4.23-1.248-2.41-2.496-4.822-3.783-7.212v-.001c-.554-1.032-1.463-1.474-2.702-1.313a7.636 7.636 0 0 0-1.815.47zM48.982 52.305a.5.5 0 0 1-.362-.155L38.176 41.18a.5.5 0 0 1 .04-.728c.204-.171.406-.333.617-.493 2.155-1.627 4.216-1.63 5.808-.007a497.406 497.406 0 0 1 5.672 5.872c1.088 1.147 1.29 2.603.571 4.098-.37.778-.874 1.505-1.534 2.222a.5.5 0 0 1-.364.161h-.004zm-9.708-11.424 9.692 10.182a7.61 7.61 0 0 0 1.017-1.573c.543-1.127.409-2.13-.397-2.979a494.819 494.819 0 0 0-5.659-5.86c-1.23-1.253-2.74-1.218-4.49.104-.055.041-.11.084-.163.126zM36.487 34.577c-.2 0-.403-.042-.595-.13a1.414 1.414 0 0 1-.838-1.301V22.783a3.27 3.27 0 0 1 3.266-3.266h9.723a3.27 3.27 0 0 1 3.267 3.266v5.278a3.27 3.27 0 0 1-3.267 3.267h-7.146a.43.43 0 0 0-.283.106l-3.193 2.788a1.419 1.419 0 0 1-.934.355zm1.833-14.06a2.269 2.269 0 0 0-2.266 2.266v10.363c0 .257.192.363.251.39.06.027.265.1.458-.067l3.193-2.79c.262-.226.596-.351.94-.351h7.147a2.269 2.269 0 0 0 2.267-2.267v-5.278a2.269 2.269 0 0 0-2.267-2.266z" fill="#ffffff" opacity="1" data-original="#000000"></path><path d="M46.973 24.484H39.39a.5.5 0 1 1 0-1h7.583a.5.5 0 1 1 0 1zM43.557 27.81H39.39a.5.5 0 1 1 0-1h4.167a.5.5 0 1 1 0 1z" fill="#ffffff" opacity="1" data-original="#000000"></path></g></svg>