<svg xmlns="http://www.w3.org/2000/svg" version="1.1" xmlns:xlink="http://www.w3.org/1999/xlink" width="512" height="512" x="0" y="0" viewBox="0 0 256 256" style="enable-background:new 0 0 512 512" xml:space="preserve" class=""><g><g fill="none" stroke-miterlimit="10" stroke-width="0" transform="matrix(2.81 0 0 2.81 1.407 1.407)"><path fill="#ffffff" d="m89 51.313-6.725-18.955a1.954 1.954 0 0 0-1.864-1.367H65.232v-10.53a1.954 1.954 0 0 0-1.954-1.954h-53.19a1.954 1.954 0 0 0-1.954 1.954v41.354c0 1.079.875 1.954 1.954 1.954h5.163c-.03.26-.048.523-.048.791a6.933 6.933 0 1 0 13.866 0c0-.268-.019-.531-.048-.791h38.107c-.03.26-.048.523-.048.791a6.933 6.933 0 1 0 13.866 0c0-.268-.019-.531-.048-.791h6.149a1.954 1.954 0 0 0 1.954-1.954V51.313z" opacity="0" data-original="#c9cfd4" class=""></path><path fill="#ffffff" d="M74.012 72.493c-4.304 0-7.818-3.446-7.93-7.725H30.066c-.111 4.278-3.626 7.725-7.93 7.725s-7.819-3.446-7.93-7.725h-4.118a2.957 2.957 0 0 1-2.954-2.954V20.461a2.958 2.958 0 0 1 2.954-2.955h53.19a2.957 2.957 0 0 1 2.954 2.955v9.529h14.179c1.296 0 2.428.831 2.818 2.066l6.713 18.921c.038.109.058.221.058.336v10.502a2.957 2.957 0 0 1-2.954 2.954h-5.104c-.111 4.278-3.626 7.724-7.93 7.724zm-44.991-9.724h38.106a1 1 0 0 1 .994 1.111 6.13 6.13 0 0 0-.042.68c0 3.271 2.661 5.934 5.933 5.934s5.934-2.662 5.934-5.934c0-.229-.018-.455-.043-.68a1 1 0 0 1 .994-1.111h6.149a.955.955 0 0 0 .954-.954v-10.33l-6.667-18.792c-.138-.433-.503-.702-.922-.702H65.232a1 1 0 0 1-1-1v-10.53a.956.956 0 0 0-.954-.955h-53.19a.955.955 0 0 0-.954.955v41.353c0 .526.428.954.954.954h5.163a.999.999 0 0 1 .994 1.111 6.13 6.13 0 0 0-.042.68c0 3.271 2.662 5.934 5.933 5.934s5.933-2.662 5.933-5.934c0-.229-.017-.455-.042-.68a1 1 0 0 1 .994-1.11z" opacity="1" data-original="#000000" class=""></path><path fill="#ffffff" d="M43.934 41.842H30.075a1 1 0 0 1 0-2h13.859a1 1 0 0 1 0 2zM43.934 54.355h-2.758c-.306 0-.595-.14-.785-.38l-3.409-4.315h-6.907a1 1 0 1 1 0-2h7.392c.306 0 .595.14.785.38l3.409 4.315h2.274a1 1 0 1 1-.001 2zM37.466 34.023h-7.392a1 1 0 0 1 0-2h6.907l3.409-4.316a1 1 0 0 1 .785-.38h2.758a1 1 0 0 1 0 2H41.66l-3.409 4.316a1 1 0 0 1-.785.38z" opacity="1" data-original="#000000" class=""></path><circle cx="48.023" cy="53.353" r="3.543" fill="#dfe5f1" opacity="1" data-original="#f7bf50" class=""></circle><path fill="#ffffff" d="M48.019 57.898c-2.505 0-4.543-2.038-4.543-4.543s2.038-4.543 4.543-4.543 4.543 2.038 4.543 4.543-2.039 4.543-4.543 4.543zm0-7.085c-1.402 0-2.543 1.141-2.543 2.543s1.141 2.543 2.543 2.543 2.543-1.141 2.543-2.543-1.141-2.543-2.543-2.543z" opacity="1" data-original="#000000" class=""></path><circle cx="48.023" cy="40.843" r="3.543" fill="#bdead8" opacity="1" data-original="#7ec6c5" class=""></circle><path fill="#ffffff" d="M48.019 45.385c-2.505 0-4.543-2.038-4.543-4.543s2.038-4.543 4.543-4.543 4.543 2.038 4.543 4.543-2.039 4.543-4.543 4.543zm0-7.086c-1.402 0-2.543 1.141-2.543 2.543s1.141 2.543 2.543 2.543 2.543-1.141 2.543-2.543-1.141-2.543-2.543-2.543z" opacity="1" data-original="#000000" class=""></path><circle cx="48.023" cy="28.323" r="3.543" fill="#d7b3b3" opacity="1" data-original="#f17b7b" class=""></circle><path fill="#ffffff" d="M48.019 32.87c-2.505 0-4.543-2.038-4.543-4.543s2.038-4.542 4.543-4.542 4.543 2.038 4.543 4.542-2.039 4.543-4.543 4.543zm0-7.085a2.546 2.546 0 0 0-2.543 2.542c0 1.402 1.141 2.543 2.543 2.543s2.543-1.141 2.543-2.543-1.141-2.542-2.543-2.542z" opacity="1" data-original="#000000" class=""></path><path fill="#dfe5f1" d="M1 51.417V30.266a3.744 3.744 0 0 1 3.744-3.744h21.151a3.744 3.744 0 0 1 3.744 3.744v21.151a3.744 3.744 0 0 1-3.744 3.744H4.744A3.744 3.744 0 0 1 1 51.417z" opacity="1" data-original="#f7bf50" class=""></path><g fill="#000"><path d="M25.895 56.161H4.744A4.75 4.75 0 0 1 0 51.417V30.266a4.75 4.75 0 0 1 4.744-4.744h21.151a4.75 4.75 0 0 1 4.744 4.744v21.151a4.75 4.75 0 0 1-4.744 4.744zM4.744 27.522A2.747 2.747 0 0 0 2 30.266v21.151a2.747 2.747 0 0 0 2.744 2.744h21.151a2.747 2.747 0 0 0 2.744-2.744V30.266a2.747 2.747 0 0 0-2.744-2.744z" fill="#ffffff" opacity="1" data-original="#000000" class=""></path><path d="M14.523 47.679a1 1 0 0 1-1-1v-9.157a1.52 1.52 0 0 0-1.518-1.517H9.794a1.52 1.52 0 0 0-1.517 1.517v9.157a1 1 0 1 1-2 0v-9.157a3.521 3.521 0 0 1 3.517-3.517h2.212a3.522 3.522 0 0 1 3.518 3.517v9.157c-.001.552-.448 1-1.001 1z" fill="#ffffff" opacity="1" data-original="#000000" class=""></path><path d="M14.523 41.842H7.277a1 1 0 0 1 0-2h7.247a1 1 0 1 1-.001 2zM20.968 47.679a1 1 0 0 1-1-1V35.004a1 1 0 0 1 2 0v11.674a1 1 0 0 1-1 1.001z" fill="#ffffff" opacity="1" data-original="#000000" class=""></path><path d="M23.362 36.004h-4.787a1 1 0 0 1 0-2h4.787a1 1 0 0 1 0 2zM23.362 47.679h-4.787a1 1 0 1 1 0-2h4.787a1 1 0 1 1 0 2zM65.232 49.66a1 1 0 0 1-1-1V30.991a1 1 0 1 1 2 0V48.66a1 1 0 0 1-1 1z" fill="#ffffff" opacity="1" data-original="#000000" class=""></path></g></g></g></svg>