<svg xmlns="http://www.w3.org/2000/svg" version="1.1" xmlns:xlink="http://www.w3.org/1999/xlink" width="512" height="512" x="0" y="0" viewBox="0 0 512 512" style="enable-background:new 0 0 512 512" xml:space="preserve" class=""><g><path d="M465.78 423.765c-21.737-6.744-50.054-11.788-82.59-14.769a615.02 615.02 0 0 0 22.924-26.681c24.981-30.846 44.908-61.929 59.226-92.384 18.059-38.413 27.216-75.966 27.216-111.615C492.555 80.544 413.011 1 315.238 1c-46.197 0-89.936 17.667-123.158 49.747-31.011 29.945-49.805 69.462-53.489 112.069a124.65 124.65 0 0 0-12.691-.646c-68.303 0-123.872 55.568-123.872 123.872S57.597 409.914 125.9 409.914c35.295 0 67.188-14.84 89.772-38.605 10.6 13.78 21.34 26.411 31.595 37.689-32.528 2.98-60.838 8.023-82.571 14.767-29.323 9.097-44.191 20.781-44.191 34.729 0 16.425 20.469 29.631 60.838 39.253C217.203 506.292 264.754 511 315.238 511s98.036-4.707 133.895-13.253c40.369-9.622 60.838-22.828 60.838-39.253 0-13.948-14.868-25.632-44.191-34.729zm-339.879-29.85c-59.481 0-107.872-48.392-107.872-107.872S66.42 178.17 125.901 178.17c59.48 0 107.872 48.392 107.872 107.872s-48.391 107.873-107.872 107.873zm68.229-215.543c0-66.779 54.329-121.108 121.108-121.108s121.108 54.329 121.108 121.108S382.018 299.48 315.238 299.48c-23.458 0-46.052-6.668-65.608-19.304-1.905-40.645-23.49-76.224-55.418-97.413a124.026 124.026 0 0 1-.082-4.391zm55.018 120.136c20.166 11.128 42.75 16.972 66.09 16.972 75.602 0 137.108-61.507 137.108-137.108S390.84 41.263 315.238 41.263c-74.063 0-134.59 59.032-137.023 132.514a122.884 122.884 0 0 0-23.783-8.284C160.959 81.695 230.336 17 315.238 17c88.951 0 161.317 72.366 161.317 161.316 0 75.604-44.952 147.045-82.662 193.665-32.975 40.767-66.341 70.207-78.654 80.578-13.602-11.462-52.893-46.206-89.072-93.868 12.537-17.254 20.74-37.852 22.981-60.183zm196.275 183.674C410.744 490.448 364.51 495 315.238 495c-49.271 0-95.505-4.552-130.185-12.817-38.401-9.152-48.547-19.497-48.547-23.688 0-3.192 6.883-11.366 32.932-19.447 23.059-7.154 55.549-12.507 91.818-15.149 26.837 27.692 47.663 44.233 49.029 45.31a7.985 7.985 0 0 0 4.954 1.719c1.75 0 3.501-.573 4.954-1.718 1.23-.97 22.07-17.512 49.009-45.312 36.277 2.642 68.775 7.995 91.838 15.15 26.049 8.081 32.932 16.255 32.932 19.447-.001 4.19-10.148 14.535-48.549 23.687zm-231.17-215.123a7.976 7.976 0 0 1-5.657 2.343 7.974 7.974 0 0 1-5.657-2.343c-20.578-20.578-47.938-31.911-77.039-31.911s-56.461 11.333-77.039 31.911a8 8 0 0 1-11.313-11.314c23.6-23.6 54.977-36.597 88.353-36.597s64.753 12.997 88.353 36.597a8.002 8.002 0 0 1-.001 11.314zm-22.052 10.737a8 8 0 0 1-11.314 11.314c-30.32-30.32-79.653-30.32-109.974 0A8 8 0 0 1 59.6 277.796c36.558-36.556 96.044-36.556 132.601 0zm-22.052 22.053a8 8 0 0 1-5.657 13.657 7.974 7.974 0 0 1-5.657-2.343c-8.797-8.798-20.494-13.643-32.935-13.643s-24.138 4.845-32.935 13.643a8 8 0 1 1-11.313-11.314c11.819-11.818 27.533-18.328 44.248-18.328s32.43 6.51 44.249 18.328zm-44.248 12.859c-13.446 0-24.385 10.939-24.385 24.385s10.939 24.385 24.385 24.385 24.385-10.939 24.385-24.385-10.939-24.385-24.385-24.385zm0 32.769c-4.624 0-8.385-3.762-8.385-8.385s3.761-8.385 8.385-8.385 8.385 3.762 8.385 8.385-3.762 8.385-8.385 8.385zm107.666-148.442 71.16 3.678 38.764 59.787a7.999 7.999 0 0 0 14.685-3.693l12.976-156.678a8 8 0 0 0-12.531-7.234l-129.199 89.576a8.001 8.001 0 0 0 4.145 14.564zm120.241-81.333-9.643 116.428-28.235-43.548a8.005 8.005 0 0 0-6.299-3.637l-51.832-2.679z" fill="#ffffff" opacity="1" data-original="#000000" class=""></path></g></svg>