<svg xmlns="http://www.w3.org/2000/svg" version="1.1" xmlns:xlink="http://www.w3.org/1999/xlink" width="512" height="512" x="0" y="0" viewBox="0 0 512 512" style="enable-background:new 0 0 512 512" xml:space="preserve" class=""><g><path fill-rule="evenodd" d="M8 499.2h68.851a8.038 8.038 0 0 0 8-8V373.1a7.993 7.993 0 0 0-8-8H8a8 8 0 0 0-8 8v118.1a8.044 8.044 0 0 0 8 8zm60.257-204.19a7.848 7.848 0 0 0 4.651 4 9.661 9.661 0 0 0 2.465.357 8.081 8.081 0 0 0 3.636-.857L251.3 210.561l12.532 24.506a8 8 0 0 0 14.453-.429l36.958-83.948a8.034 8.034 0 0 0-5.644-11.074l-89.706-19.29a7.979 7.979 0 0 0-8.809 11.431l12.531 24.577-172.284 87.949a8.049 8.049 0 0 0-3.493 10.788l20.419 39.938zM426.375 12.8A85.627 85.627 0 1 0 512 98.392 85.7 85.7 0 0 0 426.375 12.8zm15.839 63.586c0-5.144-3.157-9.645-7.844-12.074v27.079c13.7 3.357 23.841 15.075 23.841 29.078 0 13.932-10.138 25.649-23.841 29.007v6.429a8 8 0 1 1-16 0v-6.429c-13.689-3.358-23.841-15.075-23.841-29.007a8 8 0 1 1 16 0c0 5.072 3.165 9.573 7.844 12v-27.004c-13.689-3.358-23.841-15.146-23.841-29.078s10.152-25.649 23.841-29.007v-6.5a8 8 0 1 1 16 0v6.5c13.7 3.358 23.841 15.075 23.841 29.007a8 8 0 1 1-16 0zm-31.685 0c0-5.144 3.165-9.645 7.844-12.074v24.149c-4.679-2.429-7.844-6.93-7.844-12.074zm31.685 44.082c0 5.072-3.157 9.573-7.844 12v-24.145c4.687 2.5 7.844 6.93 7.844 12.146zM460.805 499.2a8.041 8.041 0 0 0 7.994-8V213.705a8 8 0 0 0-7.994-8h-68.852a7.993 7.993 0 0 0-8 8V491.2a8.038 8.038 0 0 0 8 8zM255.972 266.788a7.993 7.993 0 0 1 8-8h68.838a7.993 7.993 0 0 1 8 8V491.2a8.038 8.038 0 0 1-8 8h-68.837a8.038 8.038 0 0 1-8-8V266.788zM204.831 499.2a8.039 8.039 0 0 0 8-8V319.944a7.994 7.994 0 0 0-8-8H135.98a8 8 0 0 0-7.995 8V491.2a8.041 8.041 0 0 0 7.995 8z" fill="#ffffff" opacity="1" data-original="#000000" class=""></path></g></svg>