<svg xmlns="http://www.w3.org/2000/svg" version="1.1" xmlns:xlink="http://www.w3.org/1999/xlink" width="512" height="512" x="0" y="0" viewBox="0 0 64 64" style="enable-background:new 0 0 512 512" xml:space="preserve" class=""><g><path d="M44 17A12 12 0 1 1 32 5a12 12 0 0 1 12 12zm15 32a10.1 10.1 0 1 1-10.09-10.09A10.09 10.09 0 0 1 59 49zm-4 0a1 1 0 0 0-1-1h-4v-4a1 1 0 0 0-2 0v4h-4a1 1 0 0 0 0 2h4v4a1 1 0 0 0 2 0v-4h4a1 1 0 0 0 1-1zm-18.19 0a12.11 12.11 0 0 1 11.72-12.08A17.12 17.12 0 0 0 44 34.75c-.47-.15-.94-.26-1.42-.37l-.42-.08c-.38-.07-.76-.12-1.15-.17l-.45-.05c-.51 0-1-.08-1.56-.08H25c-.53 0-1.05 0-1.56.08l-.45.05c-.39 0-.77.1-1.15.17l-.41.08c-.49.11-1 .22-1.43.37A17 17 0 0 0 8 51a8 8 0 0 0 8 8h26.11a12.11 12.11 0 0 1-5.3-10z" fill="#ffffff" opacity="1" data-original="#000000"></path></g></svg>