<svg xmlns="http://www.w3.org/2000/svg" version="1.1" xmlns:xlink="http://www.w3.org/1999/xlink" width="512" height="512" x="0" y="0" viewBox="0 0 512 512" style="enable-background:new 0 0 512 512" xml:space="preserve" class=""><g><path d="M258.572 226.398c0 54.147 44.053 98.199 98.2 98.199s98.199-44.052 98.199-98.199-44.052-98.2-98.199-98.2-98.2 44.053-98.2 98.2zm182.4 0c0 46.428-37.771 84.199-84.199 84.199s-84.2-37.771-84.2-84.199 37.772-84.2 84.2-84.2 84.199 37.773 84.199 84.2zm42.455 0c0-52.026-31.534-96.818-76.489-116.286V77.924a7 7 0 0 0-2.05-4.95L342.964 11.05a7.002 7.002 0 0 0-4.95-2.05H99.191a7 7 0 0 0-7 7v144.064H75.065c-25.636 0-46.492 20.856-46.492 46.492v248.603c0 26.38 21.462 47.841 47.842 47.841h330.406c26.38 0 47.842-21.462 47.842-47.842V306.676c17.965-21.867 28.764-49.834 28.764-80.278zm-14 0c0 62.118-50.536 112.655-112.654 112.655s-112.655-50.537-112.655-112.655 50.537-112.655 112.655-112.655 112.654 50.537 112.654 112.655zM230.688 334.413l18.068 18.068c1.565 1.564 2.427 3.661 2.427 5.902s-.861 4.337-2.427 5.902l-83.031 83.033c-3.256 3.254-8.55 3.254-11.804 0l-18.069-18.069c-1.564-1.564-2.426-3.661-2.426-5.902s.861-4.337 2.427-5.901l83.032-83.033c1.564-1.564 3.66-2.426 5.901-2.426s4.337.861 5.902 2.426zm25.808 6.008-13.747-13.746 17.899-17.899a127.816 127.816 0 0 0 13.747 13.747zm88.518-307.522 38.024 38.025h-38.024zM106.191 23h224.822v54.924a7 7 0 0 0 7 7h54.924v20.089a126.26 126.26 0 0 0-36.165-5.269c-62.1 0-113.901 44.925-124.619 103.98h-33.877l-39.137-41.465a7 7 0 0 0-5.091-2.195h-47.857zm300.63 466H76.415c-18.66 0-33.842-15.181-33.842-33.841V206.556c0-17.916 14.576-32.492 32.492-32.492h75.965l39.137 41.465a7 7 0 0 0 5.091 2.195h35.162a127.762 127.762 0 0 0-.303 8.674c0 26.365 8.102 50.871 21.94 71.168l-21.251 21.251a22.528 22.528 0 0 0-6.019-.831c-5.981 0-11.593 2.318-15.802 6.527l-83.031 83.032c-4.209 4.209-6.527 9.821-6.527 15.801 0 5.981 2.318 11.593 6.526 15.801l18.069 18.069c4.356 4.356 10.078 6.534 15.801 6.534s11.445-2.178 15.802-6.534l83.031-83.032c4.209-4.209 6.527-9.821 6.527-15.802 0-2.067-.295-4.083-.831-6.019l21.251-21.251c20.297 13.839 44.804 21.94 71.169 21.94 32.149 0 61.533-12.047 83.891-31.855v133.96c0 18.662-15.182 33.843-33.842 33.843zM145.636 60.014a7 7 0 0 1 7-7H299.26a7 7 0 1 1 0 14H152.636a7 7 0 0 1-7-7zm0 37.689a7 7 0 0 1 7-7h104.249a7 7 0 1 1 0 14H152.636a7 7 0 0 1-7-7zm71.874 44.688h-64.874a7 7 0 1 1 0-14h64.874a7 7 0 1 1 0 14z" fill="#ffffff" opacity="1" data-original="#000000" class=""></path></g></svg>