<svg xmlns="http://www.w3.org/2000/svg" version="1.1" xmlns:xlink="http://www.w3.org/1999/xlink" width="512" height="512" x="0" y="0" viewBox="0 0 60 60" style="enable-background:new 0 0 512 512" xml:space="preserve" class=""><g><path fill="#ffffff" d="M59 5v11a2 2 0 0 1-4 0V9.79c-5.889 5.6-22.438 20.08-51.026 35.96a2 2 0 0 1-1.94-3.5C29.822 26.81 46.291 12.49 52.12 7H46a2 2 0 0 1 0-4h11a2.006 2.006 0 0 1 2 2z" opacity="1" data-original="#24d3bd" class=""></path><g fill="#3f2abc"><rect width="8" height="9" x="2" y="50" rx="2" fill="#e3e0f1" opacity="1" data-original="#3f2abc" class=""></rect><rect width="8" height="15" x="14" y="44" rx="2" fill="#e3e0f1" opacity="1" data-original="#3f2abc" class=""></rect><rect width="8" height="30" x="38" y="29" rx="2" fill="#e3e0f1" opacity="1" data-original="#3f2abc" class=""></rect><rect width="8" height="37" x="50" y="22" rx="2" fill="#e3e0f1" opacity="1" data-original="#3f2abc" class=""></rect><rect width="8" height="22" x="26" y="37" rx="2" fill="#e3e0f1" opacity="1" data-original="#3f2abc" class=""></rect></g><circle cx="14" cy="14" r="13" fill="#ffffff" opacity="1" data-original="#24d3bd" class=""></circle><path fill="#d6d2e8" d="M15 13.1V7.184A3 3 0 0 1 17 10a1 1 0 0 0 2 0 5.009 5.009 0 0 0-4-4.9V5a1 1 0 0 0-2 0v.1a5 5 0 0 0 0 9.8v5.917A3 3 0 0 1 11 18a1 1 0 0 0-2 0 5.009 5.009 0 0 0 4 4.9v.1a1 1 0 0 0 2 0v-.1a5 5 0 0 0 0-9.8zM11 10a3 3 0 0 1 2-2.816v5.632A3 3 0 0 1 11 10zm4 10.816v-5.632a2.982 2.982 0 0 1 0 5.632z" opacity="1" data-original="#1cb7a1" class=""></path><path fill="#d6d2e8" d="M14 28a14 14 0 1 1 14-14 14.015 14.015 0 0 1-14 14zm0-26a12 12 0 1 0 12 12A12.013 12.013 0 0 0 14 2z" opacity="1" data-original="#1cb7a1" class=""></path></g></svg>